{"glyphs":{":":{"x_min":0,"x_max":268,"ha":268,"o":"m 72 482 q 72 520 90 535 q 108 550 133 550 q 158 550 177 535 q 196 520 196 482 q 196 446 177 430 q 158 414 133 414 q 108 414 90 430 q 72 446 72 482 z m 72 54 q 72 91 90 106 q 108 121 133 121 q 158 121 177 106 q 196 91 196 54 q 196 18 177 2 q 158 -14 133 -14 q 108 -14 90 2 q 72 18 72 54 z"},"$":{"x_min":0,"x_max":572,"ha":572,"o":"m 253 -58 l 253 49 q 198 50 146 58 q 94 67 62 82 l 62 167 q 96 151 149 139 q 202 127 253 126 l 253 328 q 154 355 108 396 q 62 437 62 508 q 62 582 114 624 q 165 666 253 671 l 253 759 l 317 759 l 317 672 q 370 670 414 660 q 457 650 493 635 l 466 561 q 434 574 396 584 q 357 593 317 596 l 317 395 q 383 376 427 354 q 471 333 494 302 q 516 270 516 220 q 516 150 464 106 q 412 63 317 53 l 317 -58 z m 253 417 l 253 594 q 199 590 174 569 q 148 548 148 515 q 148 475 170 454 q 193 432 253 417 z m 317 131 q 376 137 403 158 q 430 180 430 214 q 430 252 406 271 q 382 290 317 307 z"},"?":{"x_min":0,"x_max":434,"ha":434,"o":"m 140 201 l 140 228 q 140 266 148 294 q 155 321 174 346 q 192 370 224 398 q 262 430 284 452 q 306 475 315 496 q 324 517 324 547 q 324 595 293 621 q 262 647 203 647 q 154 647 116 634 q 78 622 43 605 l 12 675 q 52 696 100 710 q 149 724 209 724 q 304 724 356 677 q 408 630 408 549 q 408 504 394 472 q 379 441 352 414 q 326 388 290 358 q 256 330 239 309 q 222 288 216 267 q 210 246 210 218 l 210 201 z m 117 54 q 117 91 134 106 q 152 121 179 121 q 204 121 222 106 q 240 91 240 54 q 240 18 222 2 q 204 -14 179 -14 q 152 -14 134 2 q 117 18 117 54 z"},"<":{"x_min":0,"x_max":572,"ha":572,"o":"m 521 116 l 50 323 l 50 373 l 521 608 l 521 530 l 144 352 l 521 194 z"},"'":{"x_min":0,"x_max":225,"ha":225,"o":"m 160 714 l 140 456 l 85 456 l 65 714 z"},"=":{"x_min":0,"x_max":572,"ha":572,"o":"m 56 416 l 56 487 l 514 487 l 514 416 z m 56 217 l 56 288 l 514 288 l 514 217 z"},"a":{"x_min":0,"x_max":561,"ha":561,"o":"m 288 545 q 386 545 433 502 q 480 459 480 365 l 480 0 l 416 0 l 399 76 l 395 76 q 360 32 321 11 q 282 -10 215 -10 q 142 -10 94 28 q 46 67 46 149 q 46 229 109 272 q 172 316 303 320 l 394 323 l 394 355 q 394 422 365 448 q 336 474 283 474 q 241 474 203 462 q 165 449 132 433 l 105 499 q 140 518 188 532 q 236 545 288 545 z m 393 262 l 314 259 q 214 255 176 227 q 137 199 137 148 q 137 103 164 82 q 192 61 235 61 q 302 61 348 98 q 393 136 393 214 z"},"L":{"x_min":0,"x_max":524,"ha":524,"o":"m 97 0 l 97 714 l 187 714 l 187 80 l 499 80 l 499 0 z"},"3":{"x_min":0,"x_max":572,"ha":572,"o":"m 493 547 q 493 475 452 432 q 412 390 345 376 l 345 372 q 430 362 472 318 q 515 274 515 203 q 515 140 486 92 q 457 44 396 17 q 336 -10 241 -10 q 185 -10 137 -2 q 89 7 45 29 l 45 111 q 90 88 142 76 q 194 64 242 64 q 338 64 380 102 q 423 139 423 205 q 423 272 370 302 q 318 331 223 331 l 154 331 l 154 406 l 224 406 q 312 406 358 443 q 403 480 403 541 q 403 593 368 622 q 333 650 273 650 q 215 650 174 633 q 133 616 93 590 l 49 650 q 87 680 144 702 q 200 724 272 724 q 384 724 438 674 q 493 624 493 547 z"},";":{"x_min":0,"x_max":268,"ha":268,"o":"m 70 482 q 70 520 88 535 q 106 550 131 550 q 157 550 176 535 q 194 520 194 482 q 194 446 176 430 q 157 414 131 414 q 106 414 88 430 q 70 446 70 482 z m 176 116 l 183 105 q 170 52 146 -12 q 121 -76 97 -129 l 31 -129 q 40 -92 50 -48 q 60 -4 68 38 q 77 81 82 116 z"},"J":{"x_min":0,"x_max":273,"ha":273,"o":"m -4 -190 q -28 -190 -46 -186 q -64 -183 -78 -177 l -78 -101 q -62 -106 -44 -108 q -26 -111 -6 -111 q 19 -111 42 -101 q 64 -91 78 -66 q 92 -42 92 4 l 92 714 l 182 714 l 182 11 q 182 -92 131 -141 q 80 -190 -4 -190 z"},"V":{"x_min":0,"x_max":600,"ha":600,"o":"m 600 714 l 345 0 l 255 0 l 0 714 l 94 714 l 255 256 q 271 212 282 174 q 292 135 300 100 q 307 135 318 174 q 329 213 345 258 l 505 714 z"},"\"":{"x_min":0,"x_max":408,"ha":408,"o":"m 160 714 l 140 456 l 85 456 l 65 714 z m 343 714 l 323 456 l 268 456 l 248 714 z"},"7":{"x_min":0,"x_max":572,"ha":572,"o":"m 136 0 l 429 634 l 44 634 l 44 714 l 523 714 l 523 646 l 233 0 z"},"S":{"x_min":0,"x_max":549,"ha":549,"o":"m 502 191 q 502 96 433 43 q 364 -10 247 -10 q 187 -10 136 -1 q 85 8 51 24 l 51 110 q 87 94 140 81 q 194 68 251 68 q 330 68 371 99 q 412 130 412 183 q 412 218 397 242 q 382 266 345 286 q 308 306 244 330 q 152 363 106 411 q 60 459 60 542 q 60 598 89 639 q 118 680 169 702 q 220 724 288 724 q 346 724 395 713 q 444 702 485 684 l 457 607 q 420 623 376 634 q 332 645 286 645 q 219 645 185 616 q 151 588 151 541 q 151 505 166 481 q 181 457 215 438 q 249 418 307 397 q 370 374 414 348 q 457 321 480 284 q 502 247 502 191 z"},"}":{"x_min":0,"x_max":380,"ha":380,"o":"m 32 -158 l 32 -86 q 84 -84 114 -62 q 143 -41 143 8 l 143 153 q 143 256 252 275 l 252 281 q 143 300 143 403 l 143 549 q 143 598 114 620 q 85 641 32 642 l 32 714 q 124 713 177 674 q 230 635 230 555 l 230 409 q 230 358 262 336 q 293 315 352 315 l 352 242 q 293 241 262 220 q 230 199 230 149 l 230 0 q 230 -80 175 -119 q 120 -158 32 -158 z"},"Z":{"x_min":0,"x_max":572,"ha":572,"o":"m 533 0 l 38 0 l 38 68 l 414 634 l 50 634 l 50 714 l 523 714 l 523 646 l 147 80 l 533 80 z"},"x":{"x_min":0,"x_max":529,"ha":529,"o":"m 212 274 l 27 536 l 127 536 l 265 334 l 402 536 l 501 536 l 316 274 l 511 0 l 411 0 l 265 214 l 117 0 l 18 0 z"},")":{"x_min":0,"x_max":300,"ha":300,"o":"m 260 274 q 260 153 224 42 q 189 -70 113 -158 l 31 -158 q 100 -64 136 48 q 171 159 171 275 q 171 394 136 507 q 100 620 30 714 l 113 714 q 189 623 224 510 q 260 396 260 274 z"},"&":{"x_min":0,"x_max":732,"ha":732,"o":"m 304 725 q 384 725 430 684 q 477 644 477 571 q 477 508 436 464 q 396 420 334 384 l 527 198 q 553 229 570 270 q 586 310 597 357 l 686 357 q 670 292 646 238 q 622 183 584 142 l 730 0 l 611 0 l 524 84 q 477 42 419 16 q 361 -10 278 -10 q 174 -10 114 41 q 53 92 53 186 q 53 262 94 309 q 136 356 207 396 q 175 432 148 473 q 120 514 120 569 q 120 642 169 684 q 218 725 304 725 z m 301 653 q 259 653 232 631 q 206 609 206 570 q 206 534 225 504 q 244 473 280 436 q 339 470 364 500 q 390 530 390 571 q 390 607 366 630 q 342 653 301 653 z m 260 341 q 206 309 176 276 q 145 243 145 189 q 145 134 182 101 q 219 68 281 68 q 345 68 390 89 q 436 110 468 139 z"},"_":{"x_min":0,"x_max":444,"ha":444,"o":"m 446 -154 l -2 -154 l -2 -90 l 446 -90 z"},"v":{"x_min":0,"x_max":508,"ha":508,"o":"m 203 0 l 0 536 l 94 536 l 208 220 q 216 198 225 171 q 234 144 241 119 q 248 94 251 78 l 255 78 q 258 94 266 120 q 274 145 283 172 q 292 198 300 220 l 414 536 l 508 536 l 304 0 z"},"O":{"x_min":0,"x_max":781,"ha":781,"o":"m 720 358 q 720 247 682 164 q 645 82 572 36 q 498 -10 391 -10 q 280 -10 206 36 q 133 82 97 165 q 61 248 61 359 q 61 468 97 550 q 133 633 206 679 q 280 725 392 725 q 499 725 572 680 q 645 634 682 552 q 720 469 720 358 z m 156 358 q 156 223 213 146 q 270 68 391 68 q 512 68 568 146 q 625 223 625 358 q 625 493 569 570 q 513 646 392 646 q 270 646 213 570 q 156 493 156 358 z"},"(":{"x_min":0,"x_max":300,"ha":300,"o":"m 40 274 q 40 396 76 510 q 111 623 187 714 l 270 714 q 200 620 164 507 q 129 394 129 275 q 129 159 164 48 q 200 -64 269 -158 l 187 -158 q 111 -70 76 42 q 40 153 40 274 z"},"C":{"x_min":0,"x_max":632,"ha":632,"o":"m 403 645 q 288 645 222 568 q 156 491 156 357 q 156 224 218 146 q 279 69 402 69 q 448 69 490 77 q 532 85 573 97 l 573 19 q 533 4 490 -3 q 448 -10 389 -10 q 280 -10 207 35 q 134 80 98 163 q 61 246 61 358 q 61 466 100 548 q 140 631 217 678 q 294 724 404 724 q 517 724 601 682 l 565 606 q 532 621 492 633 q 451 645 403 645 z"},"W":{"x_min":0,"x_max":930,"ha":930,"o":"m 917 714 l 727 0 l 636 0 l 497 468 q 488 496 480 526 q 473 555 468 578 q 462 600 461 609 q 460 596 450 554 q 440 511 427 465 l 292 0 l 201 0 l 12 714 l 106 714 l 217 278 q 229 232 238 189 q 246 146 251 108 q 256 147 266 193 q 276 239 289 283 l 415 714 l 508 714 l 639 280 q 653 234 663 188 q 673 142 678 108 q 682 145 692 188 q 701 232 713 279 l 823 714 z"},"A":{"x_min":0,"x_max":639,"ha":639,"o":"m 545 0 l 459 221 l 176 221 l 91 0 l 0 0 l 279 717 l 360 717 l 638 0 z m 432 301 l 352 517 q 349 525 342 546 q 335 567 328 590 q 322 612 318 624 q 310 593 302 564 q 293 534 287 517 l 206 301 z"},"f":{"x_min":0,"x_max":344,"ha":344,"o":"m 332 468 l 197 468 l 197 0 l 109 0 l 109 468 l 15 468 l 15 509 l 109 539 l 109 570 q 109 674 154 720 q 200 765 283 765 q 314 765 341 760 q 368 754 387 747 l 364 678 q 348 683 327 688 q 306 693 284 693 q 240 693 218 664 q 197 634 197 571 l 197 536 l 332 536 z"},"Q":{"x_min":0,"x_max":781,"ha":781,"o":"m 720 358 q 720 227 668 134 q 615 42 512 8 l 683 -170 l 554 -170 l 416 -9 q 410 -9 404 -10 q 397 -10 391 -10 q 280 -10 206 36 q 133 82 97 165 q 61 248 61 359 q 61 468 97 550 q 133 633 206 679 q 280 725 392 725 q 499 725 572 680 q 645 634 682 552 q 720 469 720 358 z m 156 358 q 156 223 213 146 q 270 68 391 68 q 512 68 568 146 q 625 223 625 358 q 625 493 569 570 q 513 646 392 646 q 270 646 213 570 q 156 493 156 358 z"},"w":{"x_min":0,"x_max":786,"ha":786,"o":"m 523 1 l 431 303 q 418 344 408 383 q 398 422 394 445 l 390 445 q 386 422 377 383 q 368 344 354 302 l 258 1 l 158 1 l 11 537 l 102 537 l 176 251 q 187 208 197 164 q 207 120 211 91 l 215 91 q 218 108 224 133 q 230 158 237 186 q 244 213 251 235 l 346 537 l 442 537 l 534 235 q 544 200 555 160 q 566 120 570 92 l 574 92 q 577 117 588 161 q 598 205 610 251 l 685 537 l 775 537 l 626 1 z"},"-":{"x_min":0,"x_max":322,"ha":322,"o":"m 40 229 l 40 307 l 282 307 l 282 229 z"},"E":{"x_min":0,"x_max":556,"ha":556,"o":"m 496 0 l 97 0 l 97 714 l 496 714 l 496 635 l 187 635 l 187 412 l 478 412 l 478 334 l 187 334 l 187 79 l 496 79 z"},"s":{"x_min":0,"x_max":479,"ha":479,"o":"m 434 148 q 434 70 376 30 q 318 -10 220 -10 q 164 -10 124 -1 q 83 8 52 24 l 52 104 q 84 88 130 74 q 175 61 222 61 q 289 61 319 82 q 349 104 349 140 q 349 160 338 176 q 327 192 298 208 q 270 224 217 244 q 165 264 128 284 q 91 304 71 332 q 51 360 51 404 q 51 472 106 509 q 162 546 252 546 q 301 546 344 536 q 386 526 423 510 l 393 440 q 359 454 322 464 q 285 474 246 474 q 192 474 164 456 q 135 439 135 409 q 135 386 148 371 q 161 356 192 341 q 222 326 273 307 q 324 288 360 268 q 396 248 415 220 q 434 191 434 148 z"},">":{"x_min":0,"x_max":572,"ha":572,"o":"m 50 194 l 427 351 l 50 530 l 50 608 l 521 373 l 521 323 l 50 116 z"},"l":{"x_min":0,"x_max":258,"ha":258,"o":"m 173 0 l 85 0 l 85 760 l 173 760 z"},"8":{"x_min":0,"x_max":572,"ha":572,"o":"m 285 724 q 379 724 439 680 q 499 636 499 553 q 499 510 480 478 q 462 446 431 422 q 400 397 363 378 q 407 356 443 330 q 479 304 500 269 q 522 234 522 185 q 522 95 458 42 q 394 -10 288 -10 q 172 -10 110 40 q 49 91 49 182 q 49 230 70 266 q 90 303 124 329 q 158 355 197 373 q 144 403 108 446 q 72 488 72 554 q 72 608 100 646 q 128 684 176 704 q 224 724 285 724 z m 284 653 q 228 653 193 626 q 158 600 158 550 q 158 513 176 488 q 193 463 223 446 q 253 428 289 412 q 341 434 376 465 q 412 496 412 550 q 412 600 377 626 q 342 653 284 653 z m 135 181 q 135 129 172 94 q 209 60 286 60 q 359 60 398 94 q 436 129 436 184 q 436 236 395 270 q 354 305 286 331 l 270 337 q 204 308 170 272 q 135 236 135 181 z"},"\\":{"x_min":0,"x_max":372,"ha":372,"o":"m 96 714 l 363 0 l 276 0 l 10 714 z"},"e":{"x_min":0,"x_max":564,"ha":564,"o":"m 292 546 q 360 546 410 516 q 460 486 486 432 q 513 377 513 304 l 513 251 l 146 251 q 148 160 192 112 q 237 65 317 65 q 368 65 408 74 q 447 84 489 102 l 489 25 q 448 7 408 -2 q 368 -10 313 -10 q 236 -10 178 21 q 120 52 88 113 q 55 174 55 264 q 55 352 84 415 q 114 478 168 512 q 221 546 292 546 z m 291 474 q 228 474 192 434 q 155 393 148 321 l 421 321 q 420 389 389 432 q 358 474 291 474 z"},"b":{"x_min":0,"x_max":615,"ha":615,"o":"m 173 760 l 173 575 q 173 541 172 512 q 170 482 168 465 l 173 465 q 196 499 236 522 q 276 545 339 545 q 439 545 500 476 q 560 406 560 268 q 560 130 499 60 q 438 -10 339 -10 q 276 -10 236 13 q 196 36 173 68 l 166 68 l 148 0 l 85 0 l 85 760 z m 324 472 q 238 472 206 423 q 173 374 173 271 l 173 267 q 173 168 206 116 q 238 63 326 63 q 398 63 434 116 q 469 169 469 269 q 469 472 324 472 z"},"%":{"x_min":0,"x_max":831,"ha":831,"o":"m 195 724 q 268 724 306 666 q 345 607 345 501 q 345 395 308 336 q 272 276 195 276 q 124 276 86 336 q 49 395 49 501 q 49 607 84 666 q 119 724 195 724 z m 652 714 l 256 0 l 179 0 l 575 714 z m 195 662 q 157 662 140 622 q 122 581 122 501 q 122 421 140 380 q 157 339 195 339 q 272 339 272 501 q 272 662 195 662 z m 632 438 q 705 438 744 380 q 782 321 782 215 q 782 109 746 50 q 709 -10 632 -10 q 561 -10 524 50 q 486 109 486 215 q 486 321 521 380 q 556 438 632 438 z m 632 375 q 594 375 576 335 q 559 295 559 215 q 559 134 576 94 q 594 53 632 53 q 709 53 709 215 q 709 375 632 375 z"},"m":{"x_min":0,"x_max":935,"ha":935,"o":"m 673 546 q 764 546 809 499 q 854 452 854 349 l 854 0 l 767 0 l 767 345 q 767 472 658 472 q 580 472 546 427 q 513 382 513 296 l 513 0 l 426 0 l 426 345 q 426 472 316 472 q 235 472 204 422 q 173 372 173 278 l 173 0 l 85 0 l 85 536 l 156 536 l 169 463 l 174 463 q 199 505 242 526 q 284 546 332 546 q 458 546 496 456 l 501 456 q 528 502 574 524 q 620 546 673 546 z"},"#":{"x_min":0,"x_max":646,"ha":646,"o":"m 480 436 l 449 276 l 586 276 l 586 209 l 436 209 l 395 0 l 324 0 l 365 209 l 222 209 l 183 0 l 113 0 l 151 209 l 25 209 l 25 276 l 164 276 l 196 436 l 62 436 l 62 502 l 208 502 l 248 714 l 320 714 l 280 502 l 424 502 l 464 714 l 533 714 l 493 502 l 620 502 l 620 436 z m 235 276 l 378 276 l 409 436 l 266 436 z"},",":{"x_min":0,"x_max":268,"ha":268,"o":"m 185 116 l 192 105 q 178 52 154 -12 q 130 -75 106 -129 l 41 -129 q 55 -72 70 -4 q 84 64 91 116 z"},"n":{"x_min":0,"x_max":618,"ha":618,"o":"m 343 546 q 439 546 488 499 q 537 452 537 349 l 537 0 l 450 0 l 450 343 q 450 472 330 472 q 241 472 207 422 q 173 372 173 278 l 173 0 l 85 0 l 85 536 l 156 536 l 169 463 l 174 463 q 200 505 246 526 q 292 546 343 546 z"},"h":{"x_min":0,"x_max":618,"ha":618,"o":"m 173 760 l 173 537 q 173 497 168 462 l 174 462 q 200 503 244 524 q 289 545 341 545 q 438 545 488 498 q 537 452 537 349 l 537 0 l 450 0 l 450 343 q 450 472 330 472 q 240 472 206 422 q 173 371 173 277 l 173 0 l 85 0 l 85 760 z"},"z":{"x_min":0,"x_max":470,"ha":470,"o":"m 431 0 l 39 0 l 39 58 l 327 468 l 56 468 l 56 536 l 424 536 l 424 470 l 140 68 l 431 68 z"},"B":{"x_min":0,"x_max":650,"ha":650,"o":"m 97 714 l 301 714 q 434 714 503 674 q 572 634 572 537 q 572 474 537 432 q 502 391 436 379 l 436 374 q 481 366 518 347 q 554 328 575 293 q 596 258 596 203 q 596 106 530 53 q 463 0 348 0 l 97 0 z m 187 410 l 319 410 q 410 410 444 440 q 479 469 479 527 q 479 586 438 612 q 396 637 305 637 l 187 637 z m 187 335 l 187 76 l 331 76 q 426 76 463 113 q 500 150 500 210 q 500 266 462 300 q 423 335 324 335 z"},"K":{"x_min":0,"x_max":619,"ha":619,"o":"m 619 0 l 513 0 l 260 341 l 187 277 l 187 0 l 97 0 l 97 714 l 187 714 l 187 362 q 217 396 248 430 q 279 464 310 498 l 503 714 l 608 714 l 325 403 z"},"R":{"x_min":0,"x_max":622,"ha":622,"o":"m 294 714 q 427 714 490 664 q 554 613 554 511 q 554 454 533 416 q 512 378 480 355 q 447 332 411 320 l 607 0 l 502 0 l 329 295 l 187 295 l 187 0 l 97 0 l 97 714 z m 289 636 l 187 636 l 187 371 l 294 371 q 381 371 421 406 q 461 440 461 507 q 461 577 419 606 q 377 636 289 636 z"},"T":{"x_min":0,"x_max":556,"ha":556,"o":"m 323 0 l 233 0 l 233 635 l 10 635 l 10 714 l 545 714 l 545 635 l 323 635 z"},"P":{"x_min":0,"x_max":605,"ha":605,"o":"m 286 714 q 426 714 490 659 q 554 604 554 504 q 554 445 528 394 q 501 342 438 310 q 376 278 269 278 l 187 278 l 187 0 l 97 0 l 97 714 z m 278 637 l 187 637 l 187 355 l 259 355 q 361 355 411 388 q 461 421 461 500 q 461 569 416 603 q 372 637 278 637 z"},"|":{"x_min":0,"x_max":551,"ha":551,"o":"m 239 760 l 312 760 l 312 -241 l 239 -241 z"},"t":{"x_min":0,"x_max":361,"ha":361,"o":"m 264 62 q 284 62 305 65 q 326 68 339 73 l 339 6 q 325 -1 299 -6 q 273 -10 249 -10 q 207 -10 172 4 q 136 19 114 55 q 92 91 92 156 l 92 468 l 16 468 l 16 510 l 93 545 l 128 659 l 180 659 l 180 536 l 335 536 l 335 468 l 180 468 l 180 158 q 180 109 204 86 q 227 62 264 62 z"},"M":{"x_min":0,"x_max":907,"ha":907,"o":"m 412 0 l 177 626 l 173 626 q 176 595 178 542 q 180 490 180 433 l 180 0 l 97 0 l 97 714 l 230 714 l 450 129 l 454 129 l 678 714 l 810 714 l 810 0 l 721 0 l 721 439 q 721 491 724 542 q 726 593 728 625 l 724 625 l 486 0 z"},"g":{"x_min":0,"x_max":615,"ha":615,"o":"m 275 546 q 328 546 370 526 q 413 506 443 465 l 448 465 l 460 536 l 530 536 l 530 -9 q 530 -124 472 -182 q 413 -240 290 -240 q 172 -240 97 -206 l 97 -125 q 176 -167 295 -167 q 364 -167 404 -126 q 443 -86 443 -16 l 443 5 q 443 17 444 40 q 445 62 446 71 l 442 71 q 388 -10 276 -10 q 172 -10 114 63 q 55 136 55 267 q 55 395 114 470 q 172 546 275 546 z m 287 472 q 220 472 183 418 q 146 365 146 266 q 146 167 182 114 q 218 62 289 62 q 370 62 407 106 q 444 149 444 246 l 444 267 q 444 376 406 424 q 368 472 287 472 z"},"j":{"x_min":0,"x_max":258,"ha":258,"o":"m 78 681 q 78 710 93 724 q 108 737 130 737 q 150 737 166 724 q 181 710 181 681 q 181 652 166 638 q 150 625 130 625 q 108 625 93 638 q 78 652 78 681 z m 22 -240 q -4 -240 -23 -236 q -42 -233 -55 -228 l -55 -157 q -40 -162 -24 -164 q -8 -167 11 -167 q 43 -167 64 -150 q 85 -132 85 -83 l 85 536 l 173 536 l 173 -80 q 173 -155 137 -198 q 101 -240 22 -240 z"},"i":{"x_min":0,"x_max":258,"ha":258,"o":"m 130 737 q 150 737 166 724 q 181 710 181 681 q 181 652 166 638 q 150 625 130 625 q 108 625 93 638 q 78 652 78 681 q 78 710 93 724 q 108 737 130 737 z m 173 536 l 173 0 l 85 0 l 85 536 z"},"y":{"x_min":0,"x_max":510,"ha":510,"o":"m 1 536 l 95 536 l 211 231 q 226 190 238 154 q 250 118 256 85 l 260 85 q 266 110 279 150 q 292 191 306 232 l 415 536 l 510 536 l 279 -74 q 250 -150 206 -195 q 162 -240 84 -240 q 60 -240 42 -238 q 24 -235 11 -232 l 11 -162 q 22 -164 38 -166 q 53 -168 70 -168 q 116 -168 144 -142 q 172 -116 189 -73 l 217 -2 z"},"@":{"x_min":0,"x_max":899,"ha":899,"o":"m 841 357 q 841 311 830 267 q 820 223 798 188 q 776 152 744 130 q 712 109 668 109 q 622 109 596 136 q 569 162 563 196 l 558 196 q 540 159 505 134 q 470 109 417 109 q 340 109 299 160 q 258 211 258 295 q 258 360 284 411 q 310 462 358 491 q 405 520 470 520 q 514 520 556 512 q 599 505 623 496 l 613 293 q 612 275 612 268 q 612 260 612 257 q 612 204 630 188 q 649 171 674 171 q 705 171 726 196 q 748 222 760 264 q 771 306 771 358 q 771 450 734 515 q 696 580 630 614 q 565 648 482 648 q 368 648 290 601 q 211 554 170 472 q 130 389 130 283 q 130 135 208 56 q 286 -23 433 -23 q 494 -23 550 -10 q 605 4 648 20 l 648 -48 q 605 -66 552 -78 q 498 -89 433 -89 q 315 -89 231 -45 q 147 -1 102 82 q 58 164 58 280 q 58 373 87 452 q 116 532 171 590 q 226 649 304 682 q 383 714 482 714 q 586 714 667 671 q 748 628 794 548 q 841 468 841 357 z m 336 293 q 336 228 361 200 q 386 171 430 171 q 486 171 510 213 q 535 255 539 322 l 545 447 q 532 451 512 454 q 492 457 471 457 q 422 457 392 433 q 362 409 349 372 q 336 334 336 293 z"},".":{"x_min":0,"x_max":268,"ha":268,"o":"m 72 54 q 72 91 90 106 q 108 121 133 121 q 158 121 177 106 q 196 91 196 54 q 196 18 177 2 q 158 -14 133 -14 q 108 -14 90 2 q 72 18 72 54 z"},"p":{"x_min":0,"x_max":615,"ha":615,"o":"m 340 546 q 439 546 500 477 q 560 408 560 269 q 560 132 500 61 q 439 -10 339 -10 q 277 -10 236 13 q 196 36 173 68 l 167 68 q 168 51 170 25 q 173 -1 173 -20 l 173 -240 l 85 -240 l 85 536 l 157 536 l 169 463 l 173 463 q 197 498 236 522 q 275 546 340 546 z m 324 472 q 242 472 208 426 q 174 380 173 286 l 173 269 q 173 170 206 116 q 238 63 326 63 q 374 63 406 90 q 438 116 454 163 q 469 210 469 270 q 469 362 434 417 q 398 472 324 472 z"},"X":{"x_min":0,"x_max":586,"ha":586,"o":"m 582 0 l 480 0 l 291 310 l 99 0 l 4 0 l 241 372 l 19 714 l 119 714 l 294 434 l 470 714 l 565 714 l 344 374 z"},"*":{"x_min":0,"x_max":551,"ha":551,"o":"m 322 760 l 302 568 l 494 622 l 508 530 l 324 515 l 443 357 l 357 310 l 272 485 l 195 310 l 106 357 l 223 515 l 41 530 l 55 622 l 245 568 l 224 760 z"},"Y":{"x_min":0,"x_max":566,"ha":566,"o":"m 283 363 l 469 714 l 566 714 l 328 277 l 328 0 l 238 0 l 238 273 l 0 714 l 98 714 z"},"c":{"x_min":0,"x_max":480,"ha":480,"o":"m 300 -10 q 228 -10 173 19 q 118 48 86 109 q 55 170 55 265 q 55 364 88 426 q 120 488 177 517 q 234 546 306 546 q 346 546 384 538 q 423 529 447 517 l 420 444 q 396 453 364 461 q 332 469 304 469 q 146 469 146 266 q 146 169 184 118 q 223 66 299 66 q 342 66 376 75 q 410 84 438 97 l 438 19 q 411 5 378 -2 q 346 -10 300 -10 z"},"!":{"x_min":0,"x_max":269,"ha":269,"o":"m 163 201 l 106 201 l 81 714 l 188 714 z m 72 54 q 72 91 90 106 q 108 121 134 121 q 159 121 178 106 q 196 91 196 54 q 196 18 178 2 q 159 -14 134 -14 q 108 -14 90 2 q 72 18 72 54 z"},"/":{"x_min":0,"x_max":372,"ha":372,"o":"m 362 714 l 96 0 l 10 0 l 276 714 z"},"[":{"x_min":0,"x_max":329,"ha":329,"o":"m 304 -158 l 80 -158 l 80 714 l 304 714 l 304 642 l 166 642 l 166 -86 l 304 -86 z"},"6":{"x_min":0,"x_max":572,"ha":572,"o":"m 55 305 q 55 382 68 456 q 82 531 118 592 q 153 652 217 688 q 281 724 382 724 q 403 724 428 722 q 454 720 470 715 l 470 640 q 452 646 429 649 q 406 652 384 652 q 315 652 269 629 q 223 606 196 566 q 170 526 158 474 q 146 422 143 363 l 149 363 q 172 398 213 422 q 254 447 318 447 q 411 447 468 390 q 525 334 525 230 q 525 118 464 54 q 402 -10 298 -10 q 230 -10 175 24 q 120 58 88 128 q 55 198 55 305 z m 297 64 q 360 64 399 104 q 438 145 438 230 q 438 298 404 338 q 369 378 300 378 q 253 378 218 358 q 183 339 164 308 q 144 278 144 247 q 144 204 161 162 q 178 119 212 92 q 246 64 297 64 z"},"r":{"x_min":0,"x_max":413,"ha":413,"o":"m 335 546 q 350 546 367 544 q 384 543 398 540 l 387 459 q 374 462 358 464 q 342 466 329 466 q 288 466 252 444 q 216 421 194 380 q 173 340 173 286 l 173 0 l 85 0 l 85 536 l 157 536 l 167 438 l 171 438 q 196 482 238 514 q 279 546 335 546 z"},"2":{"x_min":0,"x_max":572,"ha":572,"o":"m 520 0 l 48 0 l 48 73 l 235 262 q 288 316 326 358 q 363 400 382 440 q 401 480 401 529 q 401 588 366 618 q 331 649 275 649 q 222 649 183 631 q 144 613 103 581 l 56 640 q 98 675 152 700 q 207 724 275 724 q 375 724 433 673 q 491 622 491 534 q 491 478 468 429 q 445 380 404 332 q 363 284 308 231 l 159 84 l 159 80 l 520 80 z"},"{":{"x_min":0,"x_max":380,"ha":380,"o":"m 348 -158 q 256 -157 203 -118 q 150 -79 150 1 l 150 148 q 150 199 118 220 q 87 242 28 242 l 28 315 q 87 316 118 337 q 150 358 150 408 l 150 556 q 150 636 205 675 q 260 714 348 714 l 348 642 q 296 640 266 618 q 237 597 237 548 l 237 404 q 237 301 128 282 l 128 276 q 237 257 237 154 l 237 7 q 237 -42 266 -64 q 295 -85 348 -86 z"},"9":{"x_min":0,"x_max":572,"ha":572,"o":"m 520 409 q 520 332 506 258 q 493 183 458 122 q 422 62 358 26 q 293 -10 192 -10 q 172 -10 145 -8 q 118 -5 102 0 l 102 75 q 141 62 190 62 q 260 62 306 85 q 351 108 378 148 q 405 187 417 240 q 429 292 431 350 l 425 350 q 402 316 361 292 q 320 267 255 267 q 163 267 106 324 q 50 380 50 483 q 50 558 78 612 q 106 666 158 695 q 209 724 278 724 q 346 724 401 690 q 456 655 488 586 q 520 516 520 409 z m 278 650 q 216 650 176 609 q 137 568 137 484 q 137 415 170 376 q 204 336 274 336 q 322 336 357 356 q 392 375 412 405 q 431 435 431 467 q 431 510 414 552 q 397 594 363 622 q 329 650 278 650 z"}," ":{"x_min":0,"x_max":260,"ha":260,"o":""},"I":{"x_min":0,"x_max":339,"ha":339,"o":"m 298 0 l 40 0 l 40 52 l 124 71 l 124 642 l 40 662 l 40 714 l 298 714 l 298 662 l 214 642 l 214 71 l 298 52 z"},"H":{"x_min":0,"x_max":741,"ha":741,"o":"m 643 0 l 553 0 l 553 333 l 187 333 l 187 0 l 97 0 l 97 714 l 187 714 l 187 412 l 553 412 l 553 714 l 643 714 z"},"4":{"x_min":0,"x_max":572,"ha":572,"o":"m 552 162 l 448 162 l 448 0 l 363 0 l 363 162 l 21 162 l 21 237 l 357 718 l 448 718 l 448 241 l 552 241 z m 363 241 l 363 466 q 363 518 364 554 q 366 591 368 624 l 364 624 q 356 605 344 583 q 332 561 321 546 l 107 241 z"},"~":{"x_min":0,"x_max":572,"ha":572,"o":"m 269 319 q 233 335 210 340 q 186 346 164 346 q 136 346 105 329 q 74 312 50 287 l 50 365 q 98 418 170 418 q 198 418 227 412 q 256 406 302 386 q 338 370 362 364 q 385 359 406 359 q 435 359 466 376 q 497 393 521 418 l 521 341 q 472 287 401 287 q 372 287 343 294 q 314 300 269 319 z"},"D":{"x_min":0,"x_max":730,"ha":730,"o":"m 669 364 q 669 183 570 92 q 472 0 296 0 l 97 0 l 97 714 l 317 714 q 424 714 504 674 q 583 634 626 556 q 669 478 669 364 z m 574 361 q 574 504 504 570 q 433 637 304 637 l 187 637 l 187 77 l 284 77 q 574 77 574 361 z"},"^":{"x_min":0,"x_max":572,"ha":572,"o":"m 38 267 l 250 719 l 300 719 l 534 267 l 456 267 l 276 626 l 116 267 z"},"0":{"x_min":0,"x_max":572,"ha":572,"o":"m 523 358 q 523 242 499 160 q 475 78 422 34 q 370 -10 285 -10 q 164 -10 106 88 q 49 185 49 358 q 49 474 72 556 q 96 638 148 682 q 200 725 285 725 q 405 725 464 628 q 523 532 523 358 z m 137 358 q 137 211 170 138 q 204 65 285 65 q 365 65 400 138 q 434 210 434 358 q 434 504 400 577 q 365 650 285 650 q 204 650 170 577 q 137 504 137 358 z"},"F":{"x_min":0,"x_max":519,"ha":519,"o":"m 187 0 l 97 0 l 97 714 l 496 714 l 496 635 l 187 635 l 187 382 l 477 382 l 477 303 l 187 303 z"},"`":{"x_min":0,"x_max":281,"ha":281,"o":"m 145 766 q 156 744 172 716 q 189 689 208 662 q 226 636 241 618 l 241 606 l 182 606 q 159 624 130 652 q 101 681 76 710 q 52 738 40 756 l 40 766 z"},"k":{"x_min":0,"x_max":534,"ha":534,"o":"m 172 760 l 172 363 q 172 347 170 321 q 169 295 168 276 l 172 276 q 178 284 190 299 q 202 314 214 330 q 227 345 236 355 l 407 536 l 510 536 l 293 307 l 525 0 l 419 0 l 233 250 l 172 197 l 172 0 l 85 0 l 85 760 z"},"u":{"x_min":0,"x_max":618,"ha":618,"o":"m 533 536 l 533 0 l 461 0 l 448 71 l 444 71 q 418 29 372 10 q 326 -10 274 -10 q 177 -10 128 36 q 79 83 79 185 l 79 536 l 168 536 l 168 191 q 168 63 287 63 q 376 63 410 113 q 445 163 445 257 l 445 536 z"},"]":{"x_min":0,"x_max":329,"ha":329,"o":"m 25 -86 l 163 -86 l 163 642 l 25 642 l 25 714 l 249 714 l 249 -158 l 25 -158 z"},"U":{"x_min":0,"x_max":731,"ha":731,"o":"m 640 714 l 640 252 q 640 178 610 118 q 580 59 518 24 q 456 -10 362 -10 q 228 -10 159 62 q 90 135 90 254 l 90 714 l 180 714 l 180 251 q 180 164 226 116 q 273 68 367 68 q 464 68 508 120 q 551 171 551 252 l 551 714 z"},"o":{"x_min":0,"x_max":605,"ha":605,"o":"m 551 269 q 551 136 484 63 q 416 -10 301 -10 q 230 -10 174 22 q 119 55 87 118 q 55 180 55 269 q 55 402 122 474 q 188 546 304 546 q 376 546 432 514 q 488 481 520 420 q 551 358 551 269 z m 146 269 q 146 174 184 118 q 221 63 303 63 q 384 63 422 118 q 460 174 460 269 q 460 364 422 418 q 384 472 302 472 q 220 472 183 418 q 146 364 146 269 z"},"N":{"x_min":0,"x_max":760,"ha":760,"o":"m 663 0 l 558 0 l 176 593 l 172 593 q 174 558 177 506 q 180 454 180 399 l 180 0 l 97 0 l 97 714 l 201 714 l 582 123 l 586 123 q 585 139 584 171 q 582 203 580 240 q 579 278 579 311 l 579 714 l 663 714 z"},"+":{"x_min":0,"x_max":572,"ha":572,"o":"m 321 388 l 520 388 l 520 317 l 321 317 l 321 111 l 249 111 l 249 317 l 50 317 l 50 388 l 249 388 l 249 595 l 321 595 z"},"G":{"x_min":0,"x_max":728,"ha":728,"o":"m 407 377 l 654 377 l 654 27 q 596 8 537 -1 q 478 -10 403 -10 q 292 -10 216 34 q 140 79 100 162 q 61 244 61 357 q 61 468 104 550 q 148 633 231 678 q 314 724 431 724 q 491 724 544 713 q 598 702 644 682 l 610 604 q 572 620 524 632 q 477 645 426 645 q 298 645 226 568 q 155 490 155 357 q 155 272 182 206 q 210 141 269 104 q 328 68 424 68 q 471 68 504 73 q 537 78 564 85 l 564 297 l 407 297 z"},"q":{"x_min":0,"x_max":615,"ha":615,"o":"m 442 -240 l 442 -11 q 442 7 443 31 q 444 55 447 72 l 441 72 q 418 38 378 14 q 337 -10 273 -10 q 176 -10 116 60 q 55 129 55 267 q 55 405 116 476 q 178 546 276 546 q 339 546 379 522 q 419 498 443 463 l 447 463 l 460 536 l 530 536 l 530 -240 z m 290 63 q 372 63 407 108 q 442 154 443 248 l 443 266 q 443 368 409 420 q 375 473 288 473 q 216 473 181 416 q 146 360 146 265 q 146 170 181 116 q 216 63 290 63 z"},"d":{"x_min":0,"x_max":615,"ha":615,"o":"m 275 -10 q 175 -10 115 60 q 55 129 55 267 q 55 405 116 476 q 176 546 276 546 q 338 546 378 523 q 417 500 442 467 l 448 467 q 446 480 444 506 q 442 531 442 546 l 442 760 l 530 760 l 530 0 l 459 0 l 446 72 l 442 72 q 418 38 378 14 q 338 -10 275 -10 z m 289 63 q 374 63 408 110 q 443 156 443 250 l 443 266 q 443 366 410 420 q 377 473 288 473 q 217 473 182 416 q 146 360 146 265 q 146 169 182 116 q 217 63 289 63 z"},"1":{"x_min":0,"x_max":572,"ha":572,"o":"m 355 0 l 269 0 l 269 499 q 269 542 270 568 q 271 594 273 622 q 257 606 244 595 q 230 584 211 567 l 135 505 l 89 564 l 282 714 l 355 714 z"},"5":{"x_min":0,"x_max":572,"ha":572,"o":"m 275 438 q 384 438 450 383 q 515 328 515 228 q 515 117 444 54 q 374 -10 248 -10 q 192 -10 144 0 q 96 10 63 29 l 63 112 q 99 90 150 78 q 202 65 249 65 q 328 65 376 102 q 425 140 425 219 q 425 289 382 326 q 339 364 246 364 q 218 364 182 359 q 146 354 124 349 l 80 377 l 107 714 l 465 714 l 465 634 l 182 634 l 165 427 q 182 430 211 434 q 240 438 275 438 z"}}}
